<svg xmlns="http://www.w3.org/2000/svg" xmlns:xlink="http://www.w3.org/1999/xlink" width="375" zoomAndPan="magnify" viewBox="0 0 281.25 56.249996" height="75" preserveAspectRatio="xMidYMid meet" version="1.0"><defs><g/><clipPath id="dbe8b38051"><path d="M 131 0.0351562 L 215 0.0351562 L 215 17 L 131 17 Z M 131 0.0351562 " clip-rule="nonzero"/></clipPath><clipPath id="f876876b9e"><path d="M 132 40 L 215 40 L 215 55.511719 L 132 55.511719 Z M 132 40 " clip-rule="nonzero"/></clipPath></defs><g clip-path="url(#dbe8b38051)"><path fill="#38b6ff" d="M 137.699219 2.605469 C 137.699219 2.605469 163.464844 0.535156 172.765625 0.597656 C 182.070312 0.65625 204.691406 0.03125 208.460938 1.0625 C 212.226562 2.09375 216.566406 4.007812 212.808594 9.726562 C 209.050781 15.445312 201.410156 13.96875 195.105469 15.078125 C 188.800781 16.1875 169.394531 16.398438 161.113281 16.121094 C 152.832031 15.847656 142.421875 15.585938 137.695312 14.320312 C 132.519531 12.929688 127.203125 5.429688 137.699219 2.605469 Z M 137.699219 2.605469 " fill-opacity="1" fill-rule="nonzero"/></g><path fill="#5271ff" d="M 134.371094 25.34375 C 139.503906 21.878906 145.851562 21.859375 159.640625 21.859375 C 173.429688 21.859375 187.179688 20.773438 196.027344 22.074219 C 204.871094 23.371094 209.734375 22.097656 212.445312 23.535156 C 215.160156 24.972656 218.367188 29.527344 211.878906 33.441406 C 205.394531 37.363281 191.601562 35.019531 177.613281 35.257812 C 163.621094 35.503906 151.546875 33.777344 144.90625 34.679688 C 137.320312 35.714844 125.917969 31.054688 134.371094 25.34375 Z M 134.371094 25.34375 " fill-opacity="1" fill-rule="nonzero"/><g clip-path="url(#f876876b9e)"><path fill="#004aad" d="M 138.296875 42.445312 C 138.296875 42.445312 153.414062 40.835938 163.308594 40.804688 C 173.203125 40.777344 186.527344 40.328125 193.160156 40.359375 C 199.792969 40.382812 207.15625 41.027344 210.546875 41.59375 C 213.9375 42.160156 214.242188 44.574219 214.117188 48.183594 C 213.992188 51.792969 212.859375 54.195312 206.757812 53.851562 C 200.65625 53.503906 188.789062 53.839844 179.367188 54.050781 C 169.949219 54.261719 157.371094 54.261719 148.800781 54.898438 C 140.230469 55.535156 135.066406 54.132812 133.515625 51.292969 C 131.964844 48.457031 131.25 43.6875 138.296875 42.445312 Z M 138.296875 42.445312 " fill-opacity="1" fill-rule="nonzero"/></g><g fill="#ffffff" fill-opacity="1"><g transform="translate(162.920284, 53.267875)"><g><path d="M 2.984375 -10.265625 C 3.785156 -10.265625 4.375 -10.035156 4.75 -9.578125 C 5.125 -9.117188 5.3125 -8.492188 5.3125 -7.703125 L 5.3125 -2.53125 C 5.3125 -1.738281 5.125 -1.117188 4.75 -0.671875 C 4.375 -0.222656 3.785156 0 2.984375 0 L 0.59375 0 L 0.59375 -10.265625 Z M 2.96875 -1.046875 C 3.382812 -1.046875 3.691406 -1.164062 3.890625 -1.40625 C 4.085938 -1.65625 4.1875 -2.015625 4.1875 -2.484375 L 4.1875 -7.765625 C 4.1875 -8.234375 4.085938 -8.59375 3.890625 -8.84375 C 3.691406 -9.09375 3.378906 -9.21875 2.953125 -9.21875 L 1.734375 -9.21875 L 1.734375 -1.046875 Z M 2.96875 -1.046875 "/></g></g></g><g fill="#ffffff" fill-opacity="1"><g transform="translate(168.722585, 53.267875)"><g><path d="M 0.5 -7.78125 C 0.5 -8.570312 0.691406 -9.195312 1.078125 -9.65625 C 1.460938 -10.125 2.050781 -10.359375 2.84375 -10.359375 C 3.632812 -10.359375 4.222656 -10.125 4.609375 -9.65625 C 5.003906 -9.195312 5.203125 -8.570312 5.203125 -7.78125 L 5.203125 -2.484375 C 5.203125 -1.691406 5.003906 -1.0625 4.609375 -0.59375 C 4.222656 -0.125 3.632812 0.109375 2.84375 0.109375 C 2.050781 0.109375 1.460938 -0.125 1.078125 -0.59375 C 0.691406 -1.0625 0.5 -1.691406 0.5 -2.484375 Z M 1.625 -2.421875 C 1.625 -1.953125 1.722656 -1.585938 1.921875 -1.328125 C 2.128906 -1.066406 2.4375 -0.9375 2.84375 -0.9375 C 3.257812 -0.9375 3.566406 -1.066406 3.765625 -1.328125 C 3.960938 -1.585938 4.0625 -1.953125 4.0625 -2.421875 L 4.0625 -7.84375 C 4.0625 -8.3125 3.960938 -8.675781 3.765625 -8.9375 C 3.566406 -9.195312 3.257812 -9.328125 2.84375 -9.328125 C 2.4375 -9.328125 2.128906 -9.195312 1.921875 -8.9375 C 1.722656 -8.675781 1.625 -8.3125 1.625 -7.84375 Z M 1.625 -2.421875 "/></g></g></g><g fill="#ffffff" fill-opacity="1"><g transform="translate(174.422318, 53.267875)"><g><path d="M 1.59375 0 L 0.578125 0 L 0.578125 -10.265625 L 2.015625 -10.265625 L 4.390625 -2.84375 L 4.390625 -10.265625 L 5.40625 -10.265625 L 5.40625 0 L 4.21875 0 L 1.59375 -8.296875 Z M 1.59375 0 "/></g></g></g><g fill="#ffffff" fill-opacity="1"><g transform="translate(180.415095, 53.267875)"><g><path d="M 4.234375 -5.71875 L 4.234375 -4.6875 L 1.734375 -4.6875 L 1.734375 -1.046875 L 4.8125 -1.046875 L 4.8125 0 L 0.59375 0 L 0.59375 -10.265625 L 4.8125 -10.265625 L 4.8125 -9.21875 L 1.734375 -9.21875 L 1.734375 -5.71875 Z M 4.234375 -5.71875 "/></g></g></g><g fill="#000000" fill-opacity="1"><g transform="translate(8.873086, 41.412758)"><g><path d="M 13.046875 -0.046875 L 9.765625 -0.046875 L 4.6875 -24.4375 L 4.6875 0 L 1.703125 0 L 1.703125 -30.640625 L 6.484375 -30.640625 L 11.515625 -6.171875 L 16.375 -30.640625 L 21.140625 -30.640625 L 21.140625 0 L 17.90625 0 L 17.90625 -24.65625 Z M 13.046875 -0.046875 "/></g></g></g><g fill="#000000" fill-opacity="1"><g transform="translate(31.766859, 41.412758)"><g><path d="M 5.203125 -6.171875 L 4.03125 0 L 0.875 0 L 6.75 -30.640625 L 11.6875 -30.640625 L 17.5625 0 L 14.140625 0 L 12.953125 -6.171875 Z M 5.640625 -9.109375 L 12.484375 -9.109375 L 9.015625 -26.796875 Z M 5.640625 -9.109375 "/></g></g></g><g fill="#000000" fill-opacity="1"><g transform="translate(50.239479, 41.412758)"><g><path d="M 4.765625 0 L 1.703125 0 L 1.703125 -30.640625 L 6.046875 -30.640625 L 13.140625 -8.5 L 13.140625 -30.640625 L 16.15625 -30.640625 L 16.15625 0 L 12.609375 0 L 4.765625 -24.78125 Z M 4.765625 0 "/></g></g></g><g fill="#000000" fill-opacity="1"><g transform="translate(68.143042, 41.412758)"><g><path d="M 5.203125 -6.171875 L 4.03125 0 L 0.875 0 L 6.75 -30.640625 L 11.6875 -30.640625 L 17.5625 0 L 14.140625 0 L 12.953125 -6.171875 Z M 5.640625 -9.109375 L 12.484375 -9.109375 L 9.015625 -26.796875 Z M 5.640625 -9.109375 "/></g></g></g><g fill="#000000" fill-opacity="1"><g transform="translate(86.615662, 41.412758)"><g><path d="M 8.359375 -30.953125 C 10.722656 -30.953125 12.46875 -30.25 13.59375 -28.84375 C 14.71875 -27.445312 15.28125 -25.582031 15.28125 -23.25 L 15.28125 -20.625 L 12.046875 -20.625 L 12.046875 -23.421875 C 12.046875 -24.828125 11.757812 -25.914062 11.1875 -26.6875 C 10.613281 -27.457031 9.703125 -27.84375 8.453125 -27.84375 C 7.222656 -27.84375 6.316406 -27.457031 5.734375 -26.6875 C 5.148438 -25.914062 4.859375 -24.828125 4.859375 -23.421875 L 4.859375 -7.21875 C 4.859375 -5.820312 5.148438 -4.734375 5.734375 -3.953125 C 6.316406 -3.179688 7.222656 -2.796875 8.453125 -2.796875 C 9.703125 -2.796875 10.613281 -3.179688 11.1875 -3.953125 C 11.757812 -4.734375 12.046875 -5.820312 12.046875 -7.21875 L 12.046875 -13.359375 L 8.890625 -13.359375 L 8.890625 -16.421875 L 15.28125 -16.421875 L 15.28125 -7.40625 C 15.28125 -5.0625 14.71875 -3.1875 13.59375 -1.78125 C 12.46875 -0.382812 10.722656 0.3125 8.359375 0.3125 C 6.023438 0.3125 4.296875 -0.382812 3.171875 -1.78125 C 2.046875 -3.1875 1.484375 -5.0625 1.484375 -7.40625 L 1.484375 -23.25 C 1.484375 -24.414062 1.625 -25.472656 1.90625 -26.421875 C 2.1875 -27.367188 2.609375 -28.175781 3.171875 -28.84375 C 3.742188 -29.519531 4.457031 -30.039062 5.3125 -30.40625 C 6.175781 -30.769531 7.191406 -30.953125 8.359375 -30.953125 Z M 8.359375 -30.953125 "/></g></g></g><g fill="#000000" fill-opacity="1"><g transform="translate(103.381112, 41.412758)"><g><path d="M 12.65625 -17.078125 L 12.65625 -14.015625 L 5.171875 -14.015625 L 5.171875 -3.109375 L 14.359375 -3.109375 L 14.359375 0 L 1.75 0 L 1.75 -30.640625 L 14.359375 -30.640625 L 14.359375 -27.53125 L 5.171875 -27.53125 L 5.171875 -17.078125 Z M 12.65625 -17.078125 "/></g></g></g><g fill="#ffffff" fill-opacity="1"><g transform="translate(159.559756, 33.44986)"><g><path d="M 2.984375 -10.265625 C 3.785156 -10.265625 4.375 -10.035156 4.75 -9.578125 C 5.125 -9.117188 5.3125 -8.492188 5.3125 -7.703125 L 5.3125 -2.53125 C 5.3125 -1.738281 5.125 -1.117188 4.75 -0.671875 C 4.375 -0.222656 3.785156 0 2.984375 0 L 0.59375 0 L 0.59375 -10.265625 Z M 2.96875 -1.046875 C 3.382812 -1.046875 3.691406 -1.164062 3.890625 -1.40625 C 4.085938 -1.65625 4.1875 -2.015625 4.1875 -2.484375 L 4.1875 -7.765625 C 4.1875 -8.234375 4.085938 -8.59375 3.890625 -8.84375 C 3.691406 -9.09375 3.378906 -9.21875 2.953125 -9.21875 L 1.734375 -9.21875 L 1.734375 -1.046875 Z M 2.96875 -1.046875 "/></g></g></g><g fill="#ffffff" fill-opacity="1"><g transform="translate(165.362057, 33.44986)"><g><path d="M 0.5 -7.78125 C 0.5 -8.570312 0.691406 -9.195312 1.078125 -9.65625 C 1.460938 -10.125 2.050781 -10.359375 2.84375 -10.359375 C 3.632812 -10.359375 4.222656 -10.125 4.609375 -9.65625 C 5.003906 -9.195312 5.203125 -8.570312 5.203125 -7.78125 L 5.203125 -2.484375 C 5.203125 -1.691406 5.003906 -1.0625 4.609375 -0.59375 C 4.222656 -0.125 3.632812 0.109375 2.84375 0.109375 C 2.050781 0.109375 1.460938 -0.125 1.078125 -0.59375 C 0.691406 -1.0625 0.5 -1.691406 0.5 -2.484375 Z M 1.625 -2.421875 C 1.625 -1.953125 1.722656 -1.585938 1.921875 -1.328125 C 2.128906 -1.066406 2.4375 -0.9375 2.84375 -0.9375 C 3.257812 -0.9375 3.566406 -1.066406 3.765625 -1.328125 C 3.960938 -1.585938 4.0625 -1.953125 4.0625 -2.421875 L 4.0625 -7.84375 C 4.0625 -8.3125 3.960938 -8.675781 3.765625 -8.9375 C 3.566406 -9.195312 3.257812 -9.328125 2.84375 -9.328125 C 2.4375 -9.328125 2.128906 -9.195312 1.921875 -8.9375 C 1.722656 -8.675781 1.625 -8.3125 1.625 -7.84375 Z M 1.625 -2.421875 "/></g></g></g><g fill="#ffffff" fill-opacity="1"><g transform="translate(171.06179, 33.44986)"><g><path d="M 1.734375 -10.265625 L 1.734375 0 L 0.59375 0 L 0.59375 -10.265625 Z M 1.734375 -10.265625 "/></g></g></g><g fill="#ffffff" fill-opacity="1"><g transform="translate(173.376846, 33.44986)"><g><path d="M 1.59375 0 L 0.578125 0 L 0.578125 -10.265625 L 2.015625 -10.265625 L 4.390625 -2.84375 L 4.390625 -10.265625 L 5.40625 -10.265625 L 5.40625 0 L 4.21875 0 L 1.59375 -8.296875 Z M 1.59375 0 "/></g></g></g><g fill="#ffffff" fill-opacity="1"><g transform="translate(179.369623, 33.44986)"><g><path d="M 2.796875 -10.359375 C 3.585938 -10.359375 4.171875 -10.125 4.546875 -9.65625 C 4.921875 -9.1875 5.109375 -8.5625 5.109375 -7.78125 L 5.109375 -6.90625 L 4.03125 -6.90625 L 4.03125 -7.84375 C 4.03125 -8.3125 3.929688 -8.675781 3.734375 -8.9375 C 3.546875 -9.195312 3.242188 -9.328125 2.828125 -9.328125 C 2.421875 -9.328125 2.117188 -9.195312 1.921875 -8.9375 C 1.722656 -8.675781 1.625 -8.3125 1.625 -7.84375 L 1.625 -2.421875 C 1.625 -1.953125 1.722656 -1.585938 1.921875 -1.328125 C 2.117188 -1.066406 2.421875 -0.9375 2.828125 -0.9375 C 3.242188 -0.9375 3.546875 -1.066406 3.734375 -1.328125 C 3.929688 -1.585938 4.03125 -1.953125 4.03125 -2.421875 L 4.03125 -4.46875 L 2.96875 -4.46875 L 2.96875 -5.5 L 5.109375 -5.5 L 5.109375 -2.484375 C 5.109375 -1.691406 4.921875 -1.0625 4.546875 -0.59375 C 4.171875 -0.125 3.585938 0.109375 2.796875 0.109375 C 2.015625 0.109375 1.4375 -0.125 1.0625 -0.59375 C 0.6875 -1.0625 0.5 -1.691406 0.5 -2.484375 L 0.5 -7.78125 C 0.5 -8.175781 0.546875 -8.53125 0.640625 -8.84375 C 0.734375 -9.164062 0.875 -9.4375 1.0625 -9.65625 C 1.25 -9.882812 1.488281 -10.054688 1.78125 -10.171875 C 2.070312 -10.296875 2.410156 -10.359375 2.796875 -10.359375 Z M 2.796875 -10.359375 "/></g></g></g><g fill="#ffffff" fill-opacity="1"><g transform="translate(159.272187, 13.907584)"><g><path d="M 2.078125 0 L 2.078125 -9.21875 L 0.1875 -9.21875 L 0.1875 -10.265625 L 5.109375 -10.265625 L 5.109375 -9.21875 L 3.21875 -9.21875 L 3.21875 0 Z M 2.078125 0 "/></g></g></g><g fill="#ffffff" fill-opacity="1"><g transform="translate(164.590956, 13.907584)"><g><path d="M 0.5 -7.78125 C 0.5 -8.570312 0.691406 -9.195312 1.078125 -9.65625 C 1.460938 -10.125 2.050781 -10.359375 2.84375 -10.359375 C 3.632812 -10.359375 4.222656 -10.125 4.609375 -9.65625 C 5.003906 -9.195312 5.203125 -8.570312 5.203125 -7.78125 L 5.203125 -2.484375 C 5.203125 -1.691406 5.003906 -1.0625 4.609375 -0.59375 C 4.222656 -0.125 3.632812 0.109375 2.84375 0.109375 C 2.050781 0.109375 1.460938 -0.125 1.078125 -0.59375 C 0.691406 -1.0625 0.5 -1.691406 0.5 -2.484375 Z M 1.625 -2.421875 C 1.625 -1.953125 1.722656 -1.585938 1.921875 -1.328125 C 2.128906 -1.066406 2.4375 -0.9375 2.84375 -0.9375 C 3.257812 -0.9375 3.566406 -1.066406 3.765625 -1.328125 C 3.960938 -1.585938 4.0625 -1.953125 4.0625 -2.421875 L 4.0625 -7.84375 C 4.0625 -8.3125 3.960938 -8.675781 3.765625 -8.9375 C 3.566406 -9.195312 3.257812 -9.328125 2.84375 -9.328125 C 2.4375 -9.328125 2.128906 -9.195312 1.921875 -8.9375 C 1.722656 -8.675781 1.625 -8.3125 1.625 -7.84375 Z M 1.625 -2.421875 "/></g></g></g><g fill="#ffffff" fill-opacity="1"><g transform="translate(170.290689, 13.907584)"><g><path d="M 0.546875 -5.640625 L 3.34375 -5.640625 L 3.34375 -4.609375 L 0.546875 -4.609375 Z M 0.546875 -5.640625 "/></g></g></g><g fill="#ffffff" fill-opacity="1"><g transform="translate(174.173545, 13.907584)"><g><path d="M 2.984375 -10.265625 C 3.785156 -10.265625 4.375 -10.035156 4.75 -9.578125 C 5.125 -9.117188 5.3125 -8.492188 5.3125 -7.703125 L 5.3125 -2.53125 C 5.3125 -1.738281 5.125 -1.117188 4.75 -0.671875 C 4.375 -0.222656 3.785156 0 2.984375 0 L 0.59375 0 L 0.59375 -10.265625 Z M 2.96875 -1.046875 C 3.382812 -1.046875 3.691406 -1.164062 3.890625 -1.40625 C 4.085938 -1.65625 4.1875 -2.015625 4.1875 -2.484375 L 4.1875 -7.765625 C 4.1875 -8.234375 4.085938 -8.59375 3.890625 -8.84375 C 3.691406 -9.09375 3.378906 -9.21875 2.953125 -9.21875 L 1.734375 -9.21875 L 1.734375 -1.046875 Z M 2.96875 -1.046875 "/></g></g></g><g fill="#ffffff" fill-opacity="1"><g transform="translate(179.975845, 13.907584)"><g><path d="M 0.5 -7.78125 C 0.5 -8.570312 0.691406 -9.195312 1.078125 -9.65625 C 1.460938 -10.125 2.050781 -10.359375 2.84375 -10.359375 C 3.632812 -10.359375 4.222656 -10.125 4.609375 -9.65625 C 5.003906 -9.195312 5.203125 -8.570312 5.203125 -7.78125 L 5.203125 -2.484375 C 5.203125 -1.691406 5.003906 -1.0625 4.609375 -0.59375 C 4.222656 -0.125 3.632812 0.109375 2.84375 0.109375 C 2.050781 0.109375 1.460938 -0.125 1.078125 -0.59375 C 0.691406 -1.0625 0.5 -1.691406 0.5 -2.484375 Z M 1.625 -2.421875 C 1.625 -1.953125 1.722656 -1.585938 1.921875 -1.328125 C 2.128906 -1.066406 2.4375 -0.9375 2.84375 -0.9375 C 3.257812 -0.9375 3.566406 -1.066406 3.765625 -1.328125 C 3.960938 -1.585938 4.0625 -1.953125 4.0625 -2.421875 L 4.0625 -7.84375 C 4.0625 -8.3125 3.960938 -8.675781 3.765625 -8.9375 C 3.566406 -9.195312 3.257812 -9.328125 2.84375 -9.328125 C 2.4375 -9.328125 2.128906 -9.195312 1.921875 -8.9375 C 1.722656 -8.675781 1.625 -8.3125 1.625 -7.84375 Z M 1.625 -2.421875 "/></g></g></g><g fill="#000000" fill-opacity="1"><g transform="translate(227.885022, 41.399775)"><g><path d="M 13.046875 -0.046875 L 9.765625 -0.046875 L 4.6875 -24.421875 L 4.6875 0 L 1.703125 0 L 1.703125 -30.640625 L 6.484375 -30.640625 L 11.515625 -6.171875 L 16.375 -30.640625 L 21.140625 -30.640625 L 21.140625 0 L 17.90625 0 L 17.90625 -24.640625 Z M 13.046875 -0.046875 "/></g></g></g><g fill="#000000" fill-opacity="1"><g transform="translate(250.769434, 41.399775)"><g><path d="M 12.640625 -17.0625 L 12.640625 -14 L 5.171875 -14 L 5.171875 -3.109375 L 14.359375 -3.109375 L 14.359375 0 L 1.75 0 L 1.75 -30.640625 L 14.359375 -30.640625 L 14.359375 -27.53125 L 5.171875 -27.53125 L 5.171875 -17.0625 Z M 12.640625 -17.0625 "/></g></g></g></svg>